<?xml version="1.0" encoding="utf-8"?>
<!-- Generator: Adobe Illustrator 17.0.0, SVG Export Plug-In . SVG Version: 6.00 Build 0)  -->
<!DOCTYPE svg PUBLIC "-//W3C//DTD SVG 1.1//EN" "http://www.w3.org/Graphics/SVG/1.1/DTD/svg11.dtd">
<svg version="1.1" id="Layer_1" xmlns="http://www.w3.org/2000/svg" xmlns:xlink="http://www.w3.org/1999/xlink" x="0px" y="0px"
	 width="56.689px" height="56.689px" viewBox="0 0 56.689 56.689" enable-background="new 0 0 56.689 56.689" xml:space="preserve">
<g>
	<path fill="none" stroke="#ffffff" stroke-width="2" stroke-miterlimit="10" d="M20.019,49.478c-1.186,0-1.926-0.764-2.579-1.549
		c-0.802-0.962-1.358-1.422-2.33-1.422c-2.69,0-7.613,0.002-7.613,0.002c-0.55-0.004-0.993,0.11-0.993-0.44V30.916
		c0-0.271,0.11-0.531,0.306-0.719c0.195-0.188,0.477-0.292,0.728-0.28c0.469,0.01,2.907-0.045,5.748-0.953
		c4.579-1.463,11.313-7.176,11.212-11.767c-0.038-1.706,0.056-2.829,0.013-3.596c-0.094-1.668-0.115-2.065,0.617-2.921
		c0.507-0.591,2.126-1.466,3.79-1.466c1.763,0,4.78,0.996,5.192,7.666c0.002,0.038,0.003,0.076,0.001,0.114
		c-0.125,2.369-0.315,4.559-0.475,5.498l7.232,0.02l4.926-0.001c2.388,0,4.331,1.568,4.331,3.956c0,1.205-0.509,2.34-1.36,3.146
		c0.793,0.965,1.243,2.189,1.243,3.458c0,1.661-0.761,3.217-2.032,4.241c0.184,0.553,0.279,1.136,0.279,1.721
		c0,2.048-1.119,3.867-2.869,4.799c0.12,0.452,0.181,0.452,0.181,0.929c0,3-2.441,4.725-5.442,4.725h-2.922
		C37.21,49.486,21.656,49.478,20.019,49.478z"/>
	<path fill="none" stroke="#ffffff" stroke-width="2" stroke-miterlimit="10" d="M48.045,29.461c0,0.552-0.447,1-1,1H37.27"/>
	<path fill="none" stroke="#ffffff" stroke-width="2" stroke-miterlimit="10" d="M48.419,36.498c0,0.552-0.447,1-1,1H37.274"/>
	<path fill="none" stroke="#ffffff" stroke-width="2" stroke-miterlimit="10" d="M46.567,42.982c0,0.553-1.7,0.5-2.253,0.5h-6.978"
		/>
</g>
</svg>
