<?xml version="1.0" encoding="utf-8"?>
<!-- Generator: Adobe Illustrator 16.0.0, SVG Export Plug-In . SVG Version: 6.00 Build 0)  -->
<!DOCTYPE svg PUBLIC "-//W3C//DTD SVG 1.1//EN" "http://www.w3.org/Graphics/SVG/1.1/DTD/svg11.dtd" [
	<!ENTITY ns_extend "http://ns.adobe.com/Extensibility/1.0/">
	<!ENTITY ns_ai "http://ns.adobe.com/AdobeIllustrator/10.0/">
	<!ENTITY ns_graphs "http://ns.adobe.com/Graphs/1.0/">
	<!ENTITY ns_vars "http://ns.adobe.com/Variables/1.0/">
	<!ENTITY ns_imrep "http://ns.adobe.com/ImageReplacement/1.0/">
	<!ENTITY ns_sfw "http://ns.adobe.com/SaveForWeb/1.0/">
	<!ENTITY ns_custom "http://ns.adobe.com/GenericCustomNamespace/1.0/">
	<!ENTITY ns_adobe_xpath "http://ns.adobe.com/XPath/1.0/">
]>
<svg version="1.1" xmlns:x="&ns_extend;" xmlns:i="&ns_ai;" xmlns:graph="&ns_graphs;"
	 xmlns="http://www.w3.org/2000/svg" xmlns:xlink="http://www.w3.org/1999/xlink" x="0px" y="0px" width="64px" height="64px"
	 viewBox="0 0 64 64" enable-background="new 0 0 64 64" xml:space="preserve">
<metadata>
	<sfw  xmlns="&ns_sfw;">
		<slices></slices>
		<sliceSourceBounds  height="57.724" width="61.5" y="-53.311" x="-6.75" bottomLeftOrigin="true"></sliceSourceBounds>
	</sfw>
</metadata>
<g id="Layer_2">
</g>
<g id="Layer_1">
	<path fill="#FFFFFF" d="M32.009,21.73c-7.787,0-14.1,6.466-14.1,14.441c0,7.977,6.313,14.444,14.1,14.444
		c7.787,0,14.1-6.468,14.1-14.444C46.109,28.196,39.796,21.73,32.009,21.73z M32.009,49.955c-7.431,0-13.455-6.172-13.455-13.784
		c0-7.61,6.024-13.78,13.455-13.78c7.43,0,13.455,6.17,13.455,13.78C45.464,43.783,39.439,49.955,32.009,49.955z"/>
	<g>
		<g>
			<path fill="#FFFFFF" d="M30.827,41.56v-0.682h-0.464c-5.019,0-8.224-2.229-8.224-5.925c0-2.663,1.854-5.925,9.01-5.925
				c0.282,0,1.633-0.021,2.298-0.021h0.342v3.076c2.298,0.392,4.173,1.754,4.173,4.005c0,2.209-1.451,3.777-4.192,4.438v2.023
				c0,0.33,0.161,0.495,1.108,0.495h0.705c3.366,0,5.04-3.758,5.262-4.935c0.181,0,0.222,0.063,0.241,0.124
				c0,0,0.021,0.063,0.021,0.165c0,0.867-0.443,4.418-0.665,4.935H30.302c-0.04,0-0.02-0.041-0.02-0.041
				C30.423,42.922,30.827,42.323,30.827,41.56z M28.508,36.956c0,0.123-0.121,0.123-0.202,0.123c-0.403,0-1.371-0.536-1.371-1.961
				c0-1.899,1.613-2.808,3.891-3.076v-1.59c0-0.701,0-1.114-0.786-1.114c-3.467,0-7.599,1.527-7.599,5.615
				c0,3.2,2.58,5.656,7.921,5.656h0.464V32.29c-2.419,0.269-3.588,1.259-3.588,2.808C27.238,36.667,28.508,36.956,28.508,36.956z
				 M33.789,32.331c0,2.704-0.02,5.719-0.02,7.928c2.317-0.578,3.931-1.837,3.931-4.129C37.7,34.106,36.147,32.724,33.789,32.331z"
				/>
		</g>
	</g>
	<g>
		<path fill="#FFFFFF" d="M35.689,15.402c-0.804-0.011-1.466,0.651-1.477,1.475c-0.001,0.09,0.008,0.177,0.021,0.263
			c-1.146-0.503-1.236-2.048,0.235-3.074c1.53-1.069,4.217,0.494,5.261,1.881c0.794,1.052,2.252,2.379,2.911,2.958
			c-0.286-0.265-0.617-0.61-0.966-1.008c1.555,1.676,3.495,3.155,3.495,3.155s-2.968-2.506-4.652-5.355
			c-1.098-1.855-2.052-6.379,0.88-8.737c0.271-0.132,0.73-0.263,1.352-0.104c0.423,0.109,0.551,0.517,0.555,0.528
			c-0.043-0.015-0.086-0.024-0.13-0.027c-0.278-0.015-0.515,0.203-0.529,0.488c0,0.016,0.001,0.032,0.001,0.049l-0.009,0.007
			c-0.007,0.455,0.646,0.701,1.023,0.361c0.386-0.347,0.498-1.216-0.326-1.637c-0.536-0.273-1.042-0.192-1.435-0.023
			c3.229-2.076,5.734-0.064,5.883,1.294c0.129,1.16-0.602,1.522-0.716,1.573c0.038-0.139,0.061-0.284,0.063-0.434
			c0.013-0.913-0.704-1.663-1.595-1.676c-0.736-0.009-1.361,0.487-1.566,1.174c-0.007,0.024-0.015,0.048-0.02,0.072
			c-0.002,0.004-0.002,0.008-0.002,0.013c-0.028,0.12-0.045,0.246-0.047,0.375c-0.002,0.149,0.015,0.295,0.051,0.433
			c0.173,0.903,0.883,1.816,2.026,1.969c2.385,0.321,3.566-1.978,3.053-3.992c-0.593-2.329-4.216-3.956-7.711-1.359
			c-3.964,2.944-2.391,7.809-1.052,10.05c0.061,0.102,0.125,0.204,0.195,0.308c-0.311-0.417-0.616-0.851-0.899-1.287
			c-1.118-1.725-3.277-2.866-5.157-2.191c-1.384,0.497-2.216,1.472-2.406,2.675c-0.19-1.204-1.021-2.178-2.406-2.675
			c-1.88-0.675-4.042,0.467-5.158,2.191c-0.282,0.436-0.587,0.869-0.897,1.286c0.068-0.103,0.135-0.206,0.195-0.306
			c1.338-2.242,2.911-7.106-1.053-10.05c-3.497-2.597-7.118-0.97-7.712,1.359c-0.512,2.014,0.668,4.313,3.053,3.992
			c1.145-0.152,1.853-1.066,2.025-1.967c0.036-0.139,0.055-0.283,0.054-0.434c-0.002-0.129-0.02-0.255-0.047-0.375
			c-0.002-0.004-0.002-0.008-0.003-0.013c-0.006-0.024-0.012-0.047-0.02-0.07c-0.203-0.688-0.829-1.186-1.565-1.177
			c-0.892,0.013-1.606,0.763-1.595,1.676c0.002,0.149,0.024,0.294,0.064,0.434c-0.114-0.05-0.846-0.413-0.718-1.573
			c0.149-1.358,2.654-3.37,5.883-1.294c-0.393-0.17-0.898-0.25-1.434,0.023c-0.824,0.421-0.712,1.29-0.326,1.637
			c0.378,0.34,1.031,0.094,1.024-0.361l-0.011-0.007c0.001-0.017,0.004-0.033,0.003-0.049c-0.015-0.286-0.251-0.503-0.529-0.488
			c-0.045,0.003-0.088,0.013-0.129,0.027c0.003-0.012,0.13-0.419,0.552-0.528c0.621-0.159,1.082-0.027,1.352,0.104
			c2.933,2.357,1.978,6.882,0.88,8.737c-1.684,2.849-4.652,5.355-4.652,5.355s1.938-1.476,3.494-3.152
			c-0.349,0.396-0.678,0.74-0.961,1.004c0.657-0.581,2.115-1.907,2.908-2.958c1.045-1.387,3.732-2.951,5.263-1.881
			c1.47,1.026,1.38,2.571,0.234,3.074c0.014-0.086,0.021-0.172,0.02-0.263c-0.01-0.824-0.672-1.486-1.477-1.475
			c-0.806,0.01-1.451,0.688-1.441,1.512c0.001,0.078,0.009,0.151,0.021,0.226c0.021,0.497,0.223,1.213,1.107,1.661
			c1.553,0.784,3.575-0.011,3.958-1.83c0.018-0.087,0.032-0.175,0.044-0.262c0.012,0.086,0.026,0.174,0.044,0.262
			c0.382,1.819,2.404,2.614,3.959,1.83c0.883-0.447,1.085-1.164,1.106-1.661c0.01-0.073,0.02-0.148,0.021-0.226
			C37.142,16.09,36.496,15.413,35.689,15.402z"/>
		<path fill="#FFFFFF" d="M37.1,12.263c1.05,0.168,1.37,0.488,1.37,0.488c-0.484-1.126-1.887-1.566-1.887-1.566
			c1.219,0.088,1.899,1.299,1.899,1.299c-0.185-1.534-0.731-2.081-1.662-2.176c-0.902-0.09-1.539-0.57-1.539-0.57
			C35.192,11.525,36.05,12.092,37.1,12.263z"/>
		<path fill="#FFFFFF" d="M40.712,8.721c0,0,0.495,1.613,0.186,2.995c-0.312,1.381-0.543,2.683,1.452,4.935
			c0,0-1.375-2.245-0.434-4.415c0,0-0.528,2.795,0.88,4.626c0,0-0.238-0.831,0.421-2.78C43.876,12.132,43.711,10.156,40.712,8.721z"
			/>
		<path fill="#FFFFFF" d="M43.605,18.427c0,0,0.502-0.756,2.496-1.513c1.995-0.756,3.46-2.217,2.595-5.686
			c0,0-0.954,1.495-2.264,2.162c-1.308,0.665-2.501,1.344-2.959,4.52c0,0,0.868-2.652,3.228-3.319
			C46.701,14.591,44.12,16.023,43.605,18.427z"/>
		<path fill="#FFFFFF" d="M46.878,20.486c0.373,0.531,1.095,0.653,1.614,0.271c0.069-0.052,0.131-0.109,0.188-0.172
			c0.279-0.246,0.52-0.643,0.458-1.284c-0.135-1.416-1.547-1.93-2.328-1.727c-0.779,0.202-2.061,1.401-1.663,2.907
			c0.715,2.714,3.286,2.808,3.245,6.176c0,0,0.871-2.754-0.787-4.237c-1.492-1.336-1.739-2.407-1.356-3.154
			c0.183-0.352,0.511-0.389,0.775-0.331C46.608,19.334,46.535,19.998,46.878,20.486z"/>
		<path fill="#FFFFFF" d="M42.641,18.906c0.121,0.114,0.233,0.213,0.337,0.295C42.978,19.202,42.85,19.092,42.641,18.906z"/>
		<path fill="#FFFFFF" d="M39.987,18.171c1.37-0.255,2.096,0.505,2.096,0.505s-1.253-1.536-2.836-0.856
			c-1.106,0.475-1.031,1.614-0.559,2.099c0.462,0.476,1.331,0.211,1.36-0.38l-0.013-0.013c0.001-0.02,0.007-0.041,0.007-0.062
			c0.004-0.371-0.285-0.675-0.646-0.68c-0.061,0-0.115,0.009-0.173,0.025C39.234,18.782,39.436,18.274,39.987,18.171z"/>
		<path fill="#FFFFFF" d="M38.629,17.387l-0.01-0.008c0.002-0.016,0.004-0.032,0.004-0.049c0.004-0.285-0.219-0.519-0.496-0.522
			c-0.047-0.001-0.089,0.007-0.132,0.018c0.004-0.012,0.158-0.41,0.587-0.49c1.052-0.196,1.608,0.388,1.608,0.388
			s-0.963-1.178-2.177-0.657c-0.85,0.365-0.794,1.241-0.431,1.613C37.939,18.045,38.606,17.842,38.629,17.387z"/>
		<path fill="#FFFFFF" d="M43.969,21.364c1.589,0.885,1.713,2.256,1.713,2.256s-0.042-2.594-2.181-3.228
			c-1.495-0.443-2.325,0.77-2.233,1.653c0.09,0.865,1.178,1.322,1.678,0.75l-0.003-0.019c0.019-0.02,0.036-0.041,0.055-0.063
			c0.301-0.371,0.248-0.919-0.112-1.226c-0.059-0.049-0.121-0.088-0.189-0.119C42.756,21.335,43.347,21.018,43.969,21.364z"/>
		<path fill="#FFFFFF" d="M56.426,33.084c-0.262-0.262-0.681-0.256-0.937,0.013c-0.255,0.269-0.249,0.7,0.015,0.961
			c0.263,0.263,0.682,0.256,0.938-0.015C56.697,33.775,56.689,33.345,56.426,33.084z"/>
		<path fill="#FFFFFF" d="M49.685,44.164c0.001,0.019,0.001,0.029,0.001,0.029C49.686,44.186,49.686,44.174,49.685,44.164z"/>
		<path fill="#FFFFFF" d="M50.648,42.986c0.961-0.521,2.507-1.18,2.446-2.995c0,0-0.571,0.359-1.291,0.453
			c-0.716,0.091-2.282,0.639-2.119,3.72c-0.009-0.249,0.004-2.111,1.897-2.813c0,0-1.981,0.953-1.841,3.581
			C49.741,44.932,49.689,43.505,50.648,42.986z"/>
		<path fill="#FFFFFF" d="M48.046,26.889c0.003,0.008,0.003,0.018,0.004,0.027C48.05,26.917,48.049,26.906,48.046,26.889z"/>
		<path fill="#FFFFFF" d="M48.195,27.642c-0.561-2.567-2.719-2.934-2.719-2.934c2.007,0.149,2.51,1.938,2.569,2.182
			c-0.658-3.014-2.31-3.105-3.025-2.996c-0.717,0.11-1.36-0.078-1.36-0.078c0.421,1.765,2.084,1.97,3.146,2.205
			S48.195,27.642,48.195,27.642z"/>
		<path fill="#FFFFFF" d="M50.729,23.048c-2.038,2.783-1.099,4.559,0.417,5.998c1.517,1.44,1.688,2.311,1.688,2.311
			c0.41-2.355-1.539-4.53-1.539-4.53c2.054,1.893,1.688,4.21,1.688,4.21c0.745-3.025-0.077-4.091-1.013-5.186
			C51.041,24.754,50.729,23.048,50.729,23.048z"/>
		<path fill="#FFFFFF" d="M51.629,34.807c0,0,0.457-0.021,1.368,0.596c0.912,0.613,1.921,0.885,3.057-0.535
			c0,0-0.892,0.05-1.558-0.302c-0.669-0.352-1.306-0.65-2.726,0.121c0,0,1.113-0.482,2.32,0.358
			C54.091,35.045,52.757,34.293,51.629,34.807z"/>
		<path fill="#FFFFFF" d="M52.203,34.313c0,0,0.4-0.233,1.553-0.46c1.155-0.226,2.083-0.886,1.92-2.854c0,0-0.651,0.726-1.424,0.966
			c-0.771,0.241-1.482,0.499-2.014,2.187c0,0,0.705-1.353,2.037-1.504C54.132,32.672,52.979,32.917,52.203,34.313z"/>
		<path fill="#FFFFFF" d="M54.733,36.065c-0.721,0.271-1.228,0.706-1.53,1.22c0.163-0.81-0.288-1.614-0.769-1.907
			c-0.433-0.264-1.246-0.461-1.925-0.154c0.744-0.744,1.671-1.247,2.144-2.541c0.456-1.246-0.536-2.368-1.182-2.604
			c-0.647-0.236-1.885,0.083-2.111,1.274c-0.104,0.54,0.069,0.897,0.292,1.13c0.04,0.056,0.087,0.11,0.141,0.158
			c0.411,0.367,1.034,0.323,1.392-0.098c0.328-0.386,0.316-0.953-0.005-1.328c0.229-0.029,0.507,0.029,0.633,0.345
			c0.267,0.666-0.025,1.553-1.396,2.565c-1.318,0.969-1.105,2.904-1.024,3.405c0.036,1.224,0.634,2.473,1.211,3.182
			c0,0-0.772-1.61-0.796-2.625c-0.034-1.541,0.851-1.965,1.199-1.988c0.332-0.02,0.556,0.126,0.688,0.299
			c-0.512-0.006-0.966,0.37-1.053,0.903c-0.095,0.59,0.294,1.145,0.87,1.243c0.078,0.012,0.154,0.017,0.229,0.012
			c0.335,0.028,0.741-0.069,1.106-0.523c0.037-0.046,0.068-0.095,0.101-0.142c-0.141,0.515-0.112,1.064,0.084,1.584
			c0.539,1.419,2.313,2.188,3.138,0.356c0,0-0.626-0.015-0.975-0.36c-0.244-0.247-0.461-0.763-0.222-1.194
			c0.643-1.166,2.224-0.503,2.147,0.787c-0.053,0.928-1.159,2.154-3.33,2.903c-2.172,0.751-4.088,1.81-4.028,5.386
			c0,0,1.051-2.489,4.507-3.762c3.459-1.268,4.924-2.867,4.496-4.94C58.337,36.579,56.233,35.499,54.733,36.065z"/>
		<path fill="#FFFFFF" d="M50.979,14.298c0,0-0.271,0.126-0.493,0.05c-0.155-0.054-0.353-0.23-0.337-0.467
			c0.038-0.638,0.856-0.688,1.084-0.118c0.167,0.413-0.062,1.175-0.845,1.96c-0.784,0.785-1.394,1.649-0.643,3.176
			c0,0-0.054-1.294,1.179-2.578c1.232-1.283,1.539-2.282,0.937-3.083c-0.607-0.803-1.731-0.821-2.265-0.257
			c-0.587,0.621-0.512,1.378-0.04,1.83C50.076,15.309,50.997,15.262,50.979,14.298z"/>
		<path fill="#FFFFFF" d="M54.047,25.391c-1.008,0.827-0.563,2.463-0.563,2.463c0.057-1.975,1.565-1.964,2.051-3.539
			c0.269-0.872-0.454-1.607-0.905-1.746c-0.451-0.138-1.292,0.126-1.405,0.953c-0.054,0.376,0.079,0.618,0.238,0.769
			c0.031,0.037,0.064,0.072,0.104,0.103c0.295,0.237,0.722,0.183,0.953-0.118c0.214-0.278,0.187-0.668-0.047-0.914
			c0.155-0.027,0.346,0.002,0.445,0.213C55.125,24.024,54.955,24.646,54.047,25.391z"/>
		<path fill="#FFFFFF" d="M56.654,29.309c-0.2-0.766-1.273-1.504-2.378-0.643c-1.582,1.23-0.807,3.406-0.807,3.406
			s-0.324-1.185,0.721-2.443c0.419-0.504,1.03-0.419,1.065-0.414c-0.047,0.047-0.089,0.101-0.122,0.161
			c-0.206,0.374-0.076,0.847,0.29,1.057c0.021,0.014,0.042,0.021,0.064,0.03l0.005,0.021C56.089,30.798,56.852,30.059,56.654,29.309
			z"/>
		
			<ellipse transform="matrix(0.9999 0.0131 -0.0131 0.9999 0.3888 -0.635)" fill="#FFFFFF" cx="48.495" cy="29.254" rx="1.226" ry="1.256"/>
		
			<ellipse transform="matrix(-0.9999 -0.0129 0.0129 -0.9999 104.3527 40.6582)" fill="#FFFFFF" cx="52.307" cy="19.993" rx="2.372" ry="2.431"/>
		<path fill="#FFFFFF" d="M55.462,21.653l0.022-0.009c0.032,0.021,0.066,0.038,0.101,0.056c0.575,0.288,1.272,0.041,1.554-0.552
			c0.044-0.097,0.074-0.194,0.095-0.295c0.062,0.069,0.666,0.773,0.421,1.731c-0.401,1.545-1.239,2.361-1.806,2.752
			c-0.825,0.318-1.584,0.912-2.22,2.755c0,0,1.038-1.874,2.917-2.019c0,0-2.157,0.69-2.894,2.429c0,0,0.488-0.495,2.106-0.765
			c1.616-0.268,2.932-1.151,2.778-3.903c0,0-0.937,0.985-2.021,1.29c-0.021,0.006-0.04,0.012-0.063,0.018
			c0.982-0.556,2.23-1.631,2.308-3.51c0.09-2.178-1.755-2.914-2.87-2.502C54.799,19.53,54.558,21.159,55.462,21.653z"/>
		<path fill="#FFFFFF" d="M61.093,28.467c-1.554-0.961-3.507,0.003-4.015,1.7c-0.287,0.966,0.085,1.608,0.423,1.965
			c0.046,0.06,0.092,0.116,0.146,0.168c0.58,0.573,1.503,0.556,2.062-0.037c0.561-0.595,0.545-1.542-0.036-2.113
			c-0.064-0.063-0.131-0.117-0.202-0.167c1.145-0.514,2.306,0.481,2.028,2.282c-0.125,0.802-0.668,1.731-1.889,2.179
			c-1.378,0.508-3.057,0.458-3.057,0.458s1.402,0.278,2.476,0.19c1.158-0.092,2.714-0.775,3.322-2.093
			C63.203,31.157,62.648,29.429,61.093,28.467z"/>
		<path fill="#FFFFFF" d="M27.418,11.185c0,0-1.403,0.44-1.887,1.566c0,0,0.319-0.32,1.369-0.488c1.05-0.17,1.909-0.738,1.819-2.524
			c0,0-0.637,0.479-1.541,0.57c-0.931,0.095-1.477,0.642-1.662,2.176C25.517,12.484,26.198,11.273,27.418,11.185z"/>
		<path fill="#FFFFFF" d="M20.783,14.082c0.659,1.95,0.419,2.78,0.419,2.78c1.409-1.831,0.882-4.626,0.882-4.626
			c0.94,2.17-0.433,4.415-0.433,4.415c1.995-2.251,1.763-3.553,1.453-4.935c-0.312-1.381,0.184-2.995,0.184-2.995
			C20.289,10.156,20.125,12.132,20.783,14.082z"/>
		<path fill="#FFFFFF" d="M17.567,13.39c-1.308-0.667-2.262-2.162-2.262-2.162c-0.865,3.469,0.598,4.93,2.594,5.686
			c1.995,0.757,2.495,1.513,2.495,1.513c-0.514-2.404-3.095-3.836-3.095-3.836c2.359,0.667,3.227,3.319,3.227,3.319
			C20.069,14.734,18.875,14.055,17.567,13.39z"/>
		<path fill="#FFFFFF" d="M15.322,20.587c0.054,0.062,0.116,0.119,0.186,0.171c0.52,0.382,1.243,0.26,1.614-0.271
			c0.343-0.488,0.27-1.152-0.146-1.551c0.266-0.059,0.593-0.021,0.773,0.331c0.385,0.748,0.139,1.818-1.354,3.154
			c-1.657,1.483-0.785,4.237-0.785,4.237c-0.042-3.368,2.528-3.461,3.244-6.176c0.397-1.505-0.883-2.705-1.663-2.907
			c-0.78-0.203-2.193,0.311-2.329,1.727C14.8,19.942,15.041,20.341,15.322,20.587z"/>
		<path fill="#FFFFFF" d="M21.362,18.906c-0.211,0.186-0.34,0.295-0.34,0.295C21.125,19.119,21.239,19.02,21.362,18.906z"/>
		<path fill="#FFFFFF" d="M24.753,17.821c-1.583-0.68-2.835,0.856-2.835,0.856s0.724-0.761,2.094-0.505
			c0.551,0.103,0.752,0.61,0.763,0.637c-0.055-0.015-0.111-0.024-0.17-0.024c-0.362,0.005-0.652,0.309-0.646,0.68
			c0,0.021,0.003,0.042,0.006,0.063l-0.013,0.012c0.03,0.591,0.898,0.856,1.361,0.38C25.785,19.435,25.859,18.296,24.753,17.821z"/>
		<path fill="#FFFFFF" d="M25.987,16.067c-1.215-0.521-2.178,0.657-2.178,0.657s0.556-0.583,1.608-0.388
			c0.43,0.08,0.583,0.479,0.586,0.49c-0.042-0.011-0.085-0.019-0.131-0.018c-0.277,0.003-0.5,0.237-0.497,0.522
			c0,0.017,0.004,0.033,0.005,0.049l-0.009,0.008c0.022,0.455,0.689,0.658,1.044,0.293C26.779,17.309,26.837,16.432,25.987,16.067z"
			/>
		<path fill="#FFFFFF" d="M20.5,20.393c-2.138,0.633-2.183,3.228-2.183,3.228s0.127-1.372,1.713-2.256
			c0.625-0.347,1.216-0.029,1.274,0.005c-0.066,0.031-0.129,0.07-0.188,0.119c-0.362,0.306-0.413,0.854-0.114,1.226
			c0.019,0.021,0.037,0.043,0.057,0.063l-0.004,0.019c0.501,0.572,1.587,0.115,1.677-0.75C22.823,21.163,21.994,19.95,20.5,20.393z"
			/>
		<path fill="#FFFFFF" d="M8.498,34.058c0.261-0.261,0.268-0.692,0.012-0.961c-0.255-0.269-0.674-0.275-0.937-0.013
			c-0.263,0.261-0.27,0.691-0.015,0.959C7.814,34.313,8.234,34.32,8.498,34.058z"/>
		<path fill="#FFFFFF" d="M12.196,40.444c-0.718-0.094-1.291-0.453-1.291-0.453c-0.061,1.815,1.487,2.474,2.446,2.995
			c0.96,0.519,0.909,1.945,0.909,1.945c0.139-2.628-1.84-3.581-1.84-3.581c1.893,0.702,1.902,2.564,1.896,2.813
			C14.479,41.083,12.913,40.535,12.196,40.444z"/>
		<path fill="#FFFFFF" d="M14.315,44.164c-0.001,0.012-0.001,0.021-0.001,0.029C14.314,44.193,14.314,44.183,14.315,44.164z"/>
		<path fill="#FFFFFF" d="M15.955,26.889c-0.004,0.017-0.007,0.027-0.007,0.027C15.95,26.907,15.953,26.899,15.955,26.889z"/>
		<path fill="#FFFFFF" d="M18.978,23.893c-0.714-0.109-2.366-0.018-3.022,2.996c0.058-0.243,0.56-2.032,2.568-2.182
			c0,0-2.158,0.367-2.718,2.934c0,0,0.328-1.387,1.389-1.622c1.062-0.234,2.727-0.439,3.146-2.205
			C20.34,23.815,19.695,24.003,18.978,23.893z"/>
		<path fill="#FFFFFF" d="M12.853,29.046c1.515-1.439,2.458-3.215,0.418-5.998c0,0-0.312,1.706-1.246,2.803
			c-0.931,1.095-1.755,2.16-1.011,5.186c0,0-0.365-2.317,1.689-4.21c0,0-1.951,2.174-1.539,4.53
			C11.166,31.357,11.336,30.487,12.853,29.046z"/>
		<path fill="#FFFFFF" d="M12.23,34.687c-1.421-0.771-2.058-0.473-2.725-0.121s-1.561,0.302-1.561,0.302
			c1.139,1.42,2.146,1.148,3.058,0.535c0.912-0.616,1.369-0.596,1.369-0.596c-1.127-0.514-2.462,0.238-2.462,0.238
			C11.115,34.204,12.23,34.687,12.23,34.687z"/>
		<path fill="#FFFFFF" d="M11.761,34.151c-0.531-1.688-1.241-1.946-2.013-2.187c-0.771-0.24-1.424-0.966-1.424-0.966
			c-0.162,1.968,0.764,2.629,1.918,2.854c1.154,0.227,1.554,0.46,1.554,0.46c-0.776-1.397-1.926-1.641-2.071-1.667
			C11.059,32.799,11.761,34.151,11.761,34.151z"/>
		<path fill="#FFFFFF" d="M14.255,18.9c0.75-1.527,0.14-2.391-0.643-3.176c-0.784-0.786-1.013-1.548-0.846-1.96
			c0.23-0.57,1.044-0.52,1.085,0.118c0.015,0.237-0.183,0.413-0.339,0.467c-0.22,0.076-0.494-0.05-0.494-0.05
			c-0.015,0.963,0.906,1.01,1.425,0.512c0.472-0.451,0.546-1.209-0.041-1.83c-0.531-0.564-1.657-0.546-2.262,0.257
			c-0.604,0.801-0.296,1.801,0.935,3.083C14.307,17.605,14.255,18.9,14.255,18.9z"/>
		<path fill="#FFFFFF" d="M13.585,34.125c-1.372-1.012-1.665-1.899-1.397-2.565c0.126-0.316,0.403-0.374,0.633-0.345
			c-0.32,0.375-0.334,0.942-0.005,1.328c0.357,0.421,0.98,0.465,1.391,0.098c0.054-0.048,0.101-0.102,0.142-0.158
			c0.22-0.232,0.395-0.589,0.291-1.13c-0.227-1.192-1.466-1.51-2.111-1.274c-0.646,0.236-1.637,1.358-1.183,2.604
			c0.473,1.294,1.4,1.797,2.145,2.541c-0.679-0.307-1.494-0.109-1.926,0.154c-0.479,0.293-0.933,1.098-0.768,1.907
			c-0.303-0.514-0.811-0.948-1.529-1.22c-1.501-0.566-3.605,0.514-4.034,2.585c-0.428,2.073,1.039,3.673,4.495,4.94
			c3.457,1.272,4.507,3.762,4.507,3.762c0.06-3.576-1.856-4.635-4.028-5.386c-2.17-0.749-3.277-1.976-3.331-2.903
			c-0.074-1.29,1.508-1.953,2.149-0.787c0.24,0.432,0.023,0.947-0.224,1.194c-0.347,0.346-0.973,0.36-0.973,0.36
			c0.823,1.832,2.599,1.063,3.137-0.356c0.197-0.52,0.226-1.069,0.085-1.584c0.031,0.047,0.063,0.096,0.101,0.142
			c0.364,0.454,0.771,0.552,1.107,0.523c0.075,0.005,0.151,0,0.228-0.012c0.576-0.099,0.966-0.653,0.87-1.243
			c-0.086-0.533-0.539-0.909-1.052-0.903c0.133-0.173,0.355-0.318,0.687-0.299c0.349,0.023,1.234,0.447,1.199,1.988
			c-0.021,1.015-0.795,2.625-0.795,2.625c0.579-0.709,1.175-1.958,1.209-3.182C14.688,37.026,14.902,35.094,13.585,34.125z"/>
		<path fill="#FFFFFF" d="M9.48,24.275c0.231,0.301,0.657,0.355,0.954,0.118c0.038-0.031,0.072-0.065,0.102-0.103
			c0.161-0.151,0.293-0.392,0.242-0.769c-0.115-0.827-0.955-1.091-1.409-0.953c-0.451,0.139-1.173,0.874-0.904,1.746
			c0.485,1.574,1.995,1.563,2.052,3.539c0,0,0.445-1.637-0.563-2.463c-0.907-0.745-1.078-1.367-0.871-1.816
			c0.098-0.21,0.289-0.24,0.444-0.213C9.295,23.607,9.269,23.998,9.48,24.275z"/>
		<path fill="#FFFFFF" d="M9.724,28.667c-1.106-0.862-2.178-0.123-2.379,0.643c-0.196,0.75,0.566,1.489,1.163,1.176l0.003-0.021
			c0.023-0.01,0.044-0.017,0.066-0.03c0.365-0.209,0.495-0.683,0.289-1.057c-0.033-0.061-0.076-0.114-0.121-0.161
			c0.037-0.006,0.646-0.091,1.064,0.414c1.046,1.258,0.721,2.443,0.721,2.443S11.307,29.896,9.724,28.667z"/>
		
			<ellipse transform="matrix(-0.012 -0.9999 0.9999 -0.012 -13.5611 45.1101)" fill="#FFFFFF" cx="15.504" cy="29.254" rx="1.256" ry="1.227"/>
		
			<ellipse transform="matrix(0.0124 0.9999 -0.9999 0.0124 31.5427 8.0524)" fill="#FFFFFF" cx="11.695" cy="19.994" rx="2.43" ry="2.373"/>
		<path fill="#FFFFFF" d="M7.545,25.14c-0.02-0.006-0.041-0.012-0.061-0.018c-1.086-0.304-2.021-1.29-2.021-1.29
			c-0.153,2.752,1.164,3.635,2.781,3.903c1.616,0.27,2.103,0.765,2.103,0.765c-0.734-1.739-2.891-2.429-2.891-2.429
			c1.878,0.146,2.917,2.019,2.917,2.019c-0.636-1.843-1.394-2.437-2.221-2.755c-0.566-0.391-1.405-1.207-1.804-2.752
			c-0.249-0.958,0.358-1.662,0.42-1.731c0.019,0.101,0.048,0.198,0.095,0.295c0.28,0.593,0.975,0.84,1.552,0.552
			c0.035-0.018,0.069-0.036,0.101-0.056l0.023,0.009c0.905-0.494,0.664-2.123-0.429-2.525c-1.117-0.412-2.96,0.324-2.871,2.502
			C5.315,23.509,6.566,24.584,7.545,25.14z"/>
		<path fill="#FFFFFF" d="M7.446,34.903c0,0-1.678,0.05-3.057-0.458c-1.219-0.448-1.763-1.377-1.887-2.179
			c-0.278-1.801,0.884-2.796,2.028-2.282c-0.072,0.049-0.14,0.103-0.204,0.167c-0.58,0.572-0.597,1.519-0.038,2.113
			c0.56,0.593,1.483,0.61,2.063,0.037c0.054-0.052,0.101-0.109,0.145-0.168c0.34-0.357,0.711-1,0.423-1.965
			c-0.507-1.697-2.458-2.661-4.013-1.7c-1.556,0.961-2.11,2.69-1.26,4.534c0.607,1.317,2.163,2.001,3.324,2.093
			C6.045,35.182,7.446,34.903,7.446,34.903z"/>
	</g>
	<g>
		<g>
			<path fill="#FFFFFF" d="M32.01,11.931l5.53-5.665H26.481L32.01,11.931z M31.985,11.467l-1.52-4.993h3.039L31.985,11.467z
				 M33.717,6.474h1.938l-3.358,4.663L33.717,6.474z M31.674,11.137l-3.358-4.663h1.939L31.674,11.137z M31.149,10.756l-4.182-4.282
				h1.099L31.149,10.756z M32.68,10.952l3.225-4.479h1.148L32.68,10.952z"/>
			<path fill="#FFFFFF" d="M35.472,3.587H28.55l-2.21,2.36h11.342L35.472,3.587z M28.656,3.794h1.146l-1.375,1.515L28.656,3.794z
				 M35.572,5.309l-1.376-1.515h1.146L35.572,5.309z M29.865,4.028L30.24,5.74h-1.931L29.865,4.028z M30.02,3.794h1.759
				l-1.391,1.684L30.02,3.794z M32,3.847l1.563,1.893h-3.127L32,3.847z M32.22,3.794h1.76l-0.37,1.684L32.22,3.794z M34.134,4.028
				l1.555,1.711h-1.932L34.134,4.028z M35.577,3.999l1.632,1.741h-1.366L35.577,3.999z M28.417,4.027l-0.26,1.712h-1.344
				L28.417,4.027z"/>
		</g>
	</g>
	<g>
		<path fill="none" d="M10.266,36.852c0,12.303,9.735,22.275,21.745,22.275c12.009,0,21.746-9.973,21.746-22.275"/>
		
			<text transform="matrix(0.6 0.7702 -0.7889 0.6146 14.3022 49.833)" fill="#FFFFFF" font-family="'Aparajita'" font-size="5.2321">S</text>
		
			<text transform="matrix(0.6841 0.6966 -0.7135 0.7007 15.8799 51.834)" fill="#FFFFFF" font-family="'Aparajita'" font-size="5.2321">p</text>
		
			<text transform="matrix(0.7687 0.6019 -0.6165 0.7874 17.6484 53.6445)" fill="#FFFFFF" font-family="'Aparajita'" font-size="5.2321">o</text>
		
			<text transform="matrix(0.848 0.4839 -0.4956 0.8686 20.252 55.6455)" fill="#FFFFFF" font-family="'Aparajita'" font-size="5.2321">r</text>
		
			<text transform="matrix(0.9058 0.3642 -0.373 0.9278 22.9028 57.126)" fill="#FFFFFF" font-family="'Aparajita'" font-size="5.2321">t</text>
		
			<text transform="matrix(0.944 0.2489 -0.2549 0.967 25.4702 58.1348)" fill="#FFFFFF" font-family="'Aparajita'" font-size="5.2321">s</text>
		
			<text transform="matrix(0.9621 0.1657 -0.1697 0.9855 27.873 58.7314)" fill="#FFFFFF" font-family="'Aparajita'" font-size="5.2321"> </text>
		
			<text transform="matrix(0.9733 0.0767 -0.0785 0.9969 29.0688 58.9619)" fill="#FFFFFF" font-family="'Aparajita'" font-size="5.2321">L</text>
		
			<text transform="matrix(0.9744 -0.0601 0.0615 0.9981 31.8555 59.1777)" fill="#FFFFFF" font-family="'Aparajita'" font-size="5.2321">o</text>
		
			<text transform="matrix(0.9536 -0.2094 0.2145 0.9767 35.1396 58.9502)" fill="#FFFFFF" font-family="'Aparajita'" font-size="5.2321">g</text>
		
			<text transform="matrix(0.9097 -0.3543 0.3629 0.9318 38.3525 58.2197)" fill="#FFFFFF" font-family="'Aparajita'" font-size="5.2321">o</text>
		
			<text transform="matrix(0.8502 -0.4799 0.4916 0.8708 41.3975 56.9922)" fill="#FFFFFF" font-family="'Aparajita'" font-size="5.2321">t</text>
		
			<text transform="matrix(0.7751 -0.5937 0.6081 0.7939 43.8428 55.6045)" fill="#FFFFFF" font-family="'Aparajita'" font-size="5.2321">y</text>
		
			<text transform="matrix(0.6914 -0.6893 0.7061 0.7081 46.3682 53.6211)" fill="#FFFFFF" font-family="'Aparajita'" font-size="5.2321">p</text>
		
			<text transform="matrix(0.6046 -0.7665 0.7851 0.6193 48.1582 51.8262)" fill="#FFFFFF" font-family="'Aparajita'" font-size="5.2321">e</text>
	</g>
</g>
</svg>
