<?xml version="1.0" encoding="utf-8"?>
<!-- Generator: Adobe Illustrator 17.0.0, SVG Export Plug-In . SVG Version: 6.00 Build 0)  -->
<!DOCTYPE svg PUBLIC "-//W3C//DTD SVG 1.1//EN" "http://www.w3.org/Graphics/SVG/1.1/DTD/svg11.dtd">
<svg version="1.1" id="Layer_1" xmlns="http://www.w3.org/2000/svg" xmlns:xlink="http://www.w3.org/1999/xlink" x="0px" y="0px"
	 width="56.69px" height="56.69px" viewBox="0 0 56.69 56.69" enable-background="new 0 0 56.69 56.69" xml:space="preserve">
<path fill-rule="evenodd" clip-rule="evenodd" fill="none" stroke="#ffffff" stroke-width="2" stroke-miterlimit="10" d="
	M42.544,18.584c4.006,3.77,6.508,9.119,6.508,15.054c0,11.415-9.253,20.668-20.668,20.668S7.715,45.053,7.715,33.638
	c0-10.475,7.793-19.129,17.898-20.483v-3.73h-1.577c-0.669,0-1.211-0.542-1.211-1.211V4.578c0-0.669,0.542-1.211,1.211-1.211h8.722
	c0.669,0,1.211,0.542,1.211,1.211v3.636c0,0.669-0.542,1.211-1.211,1.211h-1.455v3.752c3.162,0.447,6.095,1.608,8.628,3.318
	l0.6-2.681l3.231-3.078l3.899,3.937l-2.71,3.277L42.544,18.584z M28.401,16.549c-9.428,0-17.071,7.643-17.071,17.071
	s7.643,17.071,17.071,17.071s17.071-7.643,17.071-17.071S37.829,16.549,28.401,16.549z M38.177,25.97L29.7,34.855
	c-0.603,0.632-1.604,0.655-2.236,0.052c-0.632-0.603-0.655-1.604-0.052-2.236l8.477-8.884c0.603-0.632,1.604-0.655,2.236-0.052
	C38.757,24.337,38.78,25.338,38.177,25.97z"/>
</svg>
