<?xml version="1.0" encoding="utf-8"?>
<!-- Generator: Adobe Illustrator 16.0.0, SVG Export Plug-In . SVG Version: 6.00 Build 0)  -->
<!DOCTYPE svg PUBLIC "-//W3C//DTD SVG 1.1//EN" "http://www.w3.org/Graphics/SVG/1.1/DTD/svg11.dtd" [
	<!ENTITY ns_extend "http://ns.adobe.com/Extensibility/1.0/">
	<!ENTITY ns_ai "http://ns.adobe.com/AdobeIllustrator/10.0/">
	<!ENTITY ns_graphs "http://ns.adobe.com/Graphs/1.0/">
	<!ENTITY ns_vars "http://ns.adobe.com/Variables/1.0/">
	<!ENTITY ns_imrep "http://ns.adobe.com/ImageReplacement/1.0/">
	<!ENTITY ns_sfw "http://ns.adobe.com/SaveForWeb/1.0/">
	<!ENTITY ns_custom "http://ns.adobe.com/GenericCustomNamespace/1.0/">
	<!ENTITY ns_adobe_xpath "http://ns.adobe.com/XPath/1.0/">
]>
<svg version="1.1" id="Layer_1" xmlns:x="&ns_extend;" xmlns:i="&ns_ai;" xmlns:graph="&ns_graphs;"
	 xmlns="http://www.w3.org/2000/svg" xmlns:xlink="http://www.w3.org/1999/xlink" x="0px" y="0px" width="32px" height="32px"
	 viewBox="0 0 32 32" enable-background="new 0 0 32 32" xml:space="preserve">
<metadata>
	<sfw  xmlns="&ns_sfw;">
		<slices></slices>
		<sliceSourceBounds  height="28" width="28" y="12.5" x="9.438" bottomLeftOrigin="true"></sliceSourceBounds>
	</sfw>
</metadata>
<g>
	<path fill="#FFFFFF" d="M15.938,0c-7.732,0-14,6.268-14,14c0,7.731,6.268,14,14,14c7.731,0,14-6.269,14-14
		C29.938,6.268,23.669,0,15.938,0z M23.404,20.533H8.471c-0.515,0-0.934-0.418-0.934-0.934c0-0.515,0.419-0.933,0.934-0.933h14.934
		c0.516,0,0.934,0.418,0.934,0.933C24.338,20.115,23.92,20.533,23.404,20.533z M23.404,14.934H8.471
		c-0.515,0-0.934-0.419-0.934-0.934c0-0.515,0.419-0.933,0.934-0.933h14.934c0.516,0,0.934,0.418,0.934,0.933
		C24.338,14.515,23.92,14.934,23.404,14.934z M23.404,9.333H8.471c-0.515,0-0.934-0.418-0.934-0.933
		c0-0.515,0.419-0.934,0.934-0.934h14.934c0.516,0,0.934,0.418,0.934,0.934C24.338,8.915,23.92,9.333,23.404,9.333z"/>
</g>
</svg>
