<?xml version="1.0" encoding="utf-8"?>
<!-- Generator: Adobe Illustrator 17.0.0, SVG Export Plug-In . SVG Version: 6.00 Build 0)  -->
<!DOCTYPE svg PUBLIC "-//W3C//DTD SVG 1.1//EN" "http://www.w3.org/Graphics/SVG/1.1/DTD/svg11.dtd">
<svg version="1.1" id="Layer_1" xmlns="http://www.w3.org/2000/svg" xmlns:xlink="http://www.w3.org/1999/xlink" x="0px" y="0px"
	 width="56.69px" height="56.69px" viewBox="0 0 56.69 56.69" enable-background="new 0 0 56.69 56.69" xml:space="preserve">
<path fill-rule="evenodd" clip-rule="evenodd" fill="none" stroke="#ffffff" stroke-width="2" stroke-miterlimit="10" d="
	M41.544,21.328l1.416,3.374l-3.445,1.446v3.737h-3.659l-1.384,3.387l-3.459-1.413l-2.642,2.642l-2.588-2.588l-3.374,1.417
	l-1.446-3.445h-3.737v-3.66l-3.388-1.384l1.413-3.459l-2.642-2.642l2.588-2.588l-1.417-3.374l3.446-1.446V7.596h3.659l1.384-3.387
	l3.459,1.413L28.37,2.98l2.588,2.587l3.374-1.417l1.447,3.445h3.736v3.659l3.388,1.384l-1.414,3.459l2.642,2.642L41.544,21.328z
	 M28.381,11.053c-4.251,0-7.698,3.447-7.698,7.698c0,4.251,3.447,7.698,7.698,7.698c4.252,0,7.698-3.446,7.698-7.698
	C36.079,14.5,32.632,11.053,28.381,11.053z M31.013,31.859L25.009,53.02l-4.442-5.315l-6.852,1.8l6.008-19.619h1.239l1.446,3.445
	l3.453-1.522l2.509,2.693l1.524-1.524 M32.126,32.314l2.345,0.958l0.823-2.014 M35.856,29.886l9.041,17.759l-6.899-0.618
	l-3.573,6.118l-6.273-11.201l2.581-9.096"/>
</svg>
